# xmcd
#
# Track frame offsets:
#	150
#	20146
#	43997
#	65564
#	86474
#	110352
#	131168
#	151277
#	174837
#	200806
#	220158
#	246422
#	262286
#	287583
#
# Disc length: 4135 seconds
#
# Revision: 1
# Processed by: cddbd v1.5.1PL0 Copyright (c) Steve Scherf et al.
# Submitted via: audiograbber 1.83.01
#
DISCID=d910250e
DTITLE=Dj Skydreamer. - Club Fruit.
DYEAR=1900
DGENRE=
TTITLE0=Rock The Base.
TTITLE1=Believe In You.
TTITLE2=Im The Dj. (Rmx)
TTITLE3=Critical Mass.
TTITLE4=Get Ready.
TTITLE5=Sun Scream.
TTITLE6=Strange Emotion.
TTITLE7=Psychodream.
TTITLE8=Indian Dreams.
TTITLE9=Liberty.
TTITLE10=Make A Dream.
TTITLE11=Bad DeeJay.
TTITLE12=Simulate The Future.
TTITLE13=Club Fruit.
EXTD=
EXTT0=
EXTT1=
EXTT2=
EXTT3=
EXTT4=
EXTT5=
EXTT6=
EXTT7=
EXTT8=
EXTT9=
EXTT10=
EXTT11=
EXTT12=
EXTT13=
PLAYORDER=
